<?xml version="1.0" encoding="utf-8"?>
<!-- Generator: Adobe Illustrator 26.0.1, SVG Export Plug-In . SVG Version: 6.00 Build 0)  -->
<svg version="1.1" id="loaders" xmlns="http://www.w3.org/2000/svg" xmlns:xlink="http://www.w3.org/1999/xlink" x="0px" y="0px"
	 viewBox="0 0 842 746" style="enable-background:new 0 0 842 746;" xml:space="preserve">
<style type="text/css">
	.st0{fill-rule:evenodd;clip-rule:evenodd;fill:#A39F8B;}
	.st1{fill-rule:evenodd;clip-rule:evenodd;fill:#612934;}
	.st2{fill-rule:evenodd;clip-rule:evenodd;fill:#1D1B29;}
	.st3{fill-rule:evenodd;clip-rule:evenodd;fill:#51758F;}
	.st4{fill-rule:evenodd;clip-rule:evenodd;fill:#EEEADA;}
	.st5{fill-rule:evenodd;clip-rule:evenodd;fill:#54252D;}
	.st6{fill-rule:evenodd;clip-rule:evenodd;fill:#678CA6;}
	.st7{fill-rule:evenodd;clip-rule:evenodd;fill:#B33B3B;}
	.st8{fill-rule:evenodd;clip-rule:evenodd;fill:#E8DDD8;}
	.st9{fill-rule:evenodd;clip-rule:evenodd;fill:#DED6D3;}
	.st10{fill-rule:evenodd;clip-rule:evenodd;fill:#F7EAE4;}
	.st11{fill-rule:evenodd;clip-rule:evenodd;fill:#B88C3F;}
	.st12{fill-rule:evenodd;clip-rule:evenodd;fill:#6B457D;}
	.st13{fill-rule:evenodd;clip-rule:evenodd;fill:#B385C3;}
	.st14{fill-rule:evenodd;clip-rule:evenodd;fill:#88599D;}
	.st15{fill-rule:evenodd;clip-rule:evenodd;fill:#915EA3;}
	.st16{fill-rule:evenodd;clip-rule:evenodd;fill:#B383C7;}
	.st17{fill-rule:evenodd;clip-rule:evenodd;fill:#AF7EC3;}
	.st18{fill-rule:evenodd;clip-rule:evenodd;fill:#A774B8;}
	.st19{fill-rule:evenodd;clip-rule:evenodd;fill:#9662A8;}
	.st20{fill-rule:evenodd;clip-rule:evenodd;fill:#A271B3;}
	.st21{fill-rule:evenodd;clip-rule:evenodd;fill:#A776B8;}
	.st22{fill-rule:evenodd;clip-rule:evenodd;fill:#A474B8;}
	.st23{fill-rule:evenodd;clip-rule:evenodd;fill:#9D6FAD;}
	.st24{fill-rule:evenodd;clip-rule:evenodd;fill:#DBA84F;}
	.st25{fill-rule:evenodd;clip-rule:evenodd;fill:#DAAC6E;}
	.st26{fill-rule:evenodd;clip-rule:evenodd;fill:#8A461C;}
	.st27{fill-rule:evenodd;clip-rule:evenodd;fill:#CB8959;}
	.st28{fill-rule:evenodd;clip-rule:evenodd;fill:#B34D34;}
	.st29{fill-rule:evenodd;clip-rule:evenodd;fill:#4A2C1A;}
	.st30{fill-rule:evenodd;clip-rule:evenodd;fill:#803F17;}
	.st31{fill-rule:evenodd;clip-rule:evenodd;fill:#E86577;}
	.st32{fill-rule:evenodd;clip-rule:evenodd;fill:#124847;}
	.st33{fill-rule:evenodd;clip-rule:evenodd;fill:#F4E9A6;}
	.st34{fill-rule:evenodd;clip-rule:evenodd;fill:#9C4F1F;}
	.st35{fill-rule:evenodd;clip-rule:evenodd;fill:#DB5151;}
	.st36{fill-rule:evenodd;clip-rule:evenodd;fill:#D6CBA0;}
	.st37{fill-rule:evenodd;clip-rule:evenodd;fill:#45647A;}
	.st38{fill-rule:evenodd;clip-rule:evenodd;fill:#1B1C2A;}
	.st39{fill-rule:evenodd;clip-rule:evenodd;fill:#26273B;}
	.st40{fill:#C9BB6E;}
	.st41{fill-rule:evenodd;clip-rule:evenodd;fill:#CF4040;}
	.st42{fill-rule:evenodd;clip-rule:evenodd;fill:#A62E2E;}
	.st43{fill-rule:evenodd;clip-rule:evenodd;fill:#CCCCCC;}
</style>
<g>
	<polygon class="st0" points="129.56,645.64 108.38,645.64 98.68,671.06 119.86,671.06 	"/>
</g>
<g>
	<path class="st1" d="M94.4,684.88c0,0-1.42-4.01-0.71-13.44c0.71-9.43,3.55-8.82,3.55-8.82s5.68,3.41,11.13,0.8
		c5.45-2.61,6.63-5.41,6.63-5.41l13.02-0.2c0,0,6.39,11.23,12.08,12.84c5.68,1.6,17.05,0.4,19.18,1.6c2.13,1.2,2.61,3.41,3.08,5.22
		c0.47,1.8,0.47,7.22,0.47,7.22l-31.97,0.4c0,0-2.61-2.81-9.47-2.61c-6.87,0.2-8.52-0.2-8.52-0.2v3.01L94.4,684.88z"/>
</g>
<g>
	<path class="st2" d="M93.66,680.54c-0.02-0.24-0.04-0.5-0.06-0.76h1.57h15.33h51.86v3.25v1.66l-31.49,0.4c0,0-1.19-1.29-4.1-2.06
		c-1.38-0.37-3.16-0.62-5.37-0.55c-6.87,0.2-8.52-0.2-8.52-0.2v0.75v2.26l-12.45-0.27l-6.02-0.13c0,0-0.21-0.59-0.43-1.86
		C93.86,682.38,93.75,681.55,93.66,680.54z"/>
</g>
<g>
	<polygon class="st0" points="477.41,539.61 456.23,539.61 446.53,565.03 467.71,565.03 	"/>
</g>
<g>
	<path class="st3" d="M446.49,543.38c0,0,2.22-9.67,8.86-18.85c8.87-12.26,36.89-38.54,44.88-45.7c4.62-4.14,12.09-5.09,14.66-6.7
		c3.89-2.43-2.16-4.96,2.63-7.27c4.36-2.1,6.54-72.37,6.54-72.37l39.34,11.87c0,0-15.96,69.15-18.62,75.79
		c-2.66,6.65-68.01,69-68.01,69L446.49,543.38z"/>
</g>
<g>
	<polygon class="st4" points="597.26,480.05 618.73,480.05 623.83,510.48 602.37,510.48 	"/>
</g>
<g>
	<path class="st5" d="M595.08,523.69c0,0-1.44-4.8-0.72-16.08c0.72-11.28,3.6-10.56,3.6-10.56s5.76,4.08,11.28,0.96
		c5.52-3.12,6.72-6.48,6.72-6.48l13.2-0.24c0,0,6.48,13.44,12.24,15.36c5.76,1.92,17.28,0.48,19.44,1.92
		c2.16,1.44,2.64,4.08,3.12,6.24c0.48,2.16,0.48,8.64,0.48,8.64l-32.4,0.48c0,0-2.64-3.36-9.6-3.12c-6.96,0.24-8.64-0.24-8.64-0.24
		v3.6L595.08,523.69z"/>
</g>
<g>
	<path class="st2" d="M594.38,519.11c0.12,1.38,0.27,2.43,0.4,3.18c0.17,0.95,0.3,1.4,0.3,1.4l18.72,0.48v-1.88v-1.72
		c0,0,0.97,0.28,4.48,0.3c1.11,0.01,2.48-0.01,4.16-0.06c2.49-0.09,4.43,0.29,5.89,0.81c0.59,0.21,1.1,0.44,1.54,0.67
		c1.52,0.81,2.17,1.64,2.17,1.64l23.01-0.34l9.39-0.14c0,0,0-0.45-0.01-1.16c-0.01-0.98-0.04-2.46-0.11-3.89h-70
		C594.34,518.65,594.36,518.88,594.38,519.11z"/>
</g>
<g>
	<path class="st6" d="M642.68,298.83c0,0-90.6,27.79-108.47,42.1c-17.87,14.31-26.91,43-13.77,66.81
		c13.14,23.8,84.37,18.2,87.74,19.6c3.37,1.4-10.27,4.9-5.7,8.4c4.57,3.5,2.83,7,2.5,10.5c-0.33,3.5-13.43,60.2-13.43,60.2
		l42.24-7.18c0,0,6.01-88.02-0.59-92.22c-6.6-4.2-71.47-14-65.47-18.2c6-4.2,57.58-35,70.93-31.85
		c13.35,3.15,42.48-20.45,42.48-20.45S682.18,288.32,642.68,298.83z"/>
</g>
<g>
	<path class="st7" d="M569.12,338.72c0,0,7.42,16.67,11.74,17.66c4.32,1,83.88-25.31,83.88-25.31s-8.08-24.56-12.07-27.89
		c-3.99-3.32-72.72,21.16-72.72,21.16L569.12,338.72z"/>
</g>
<g>
	<polygon class="st8" points="513.05,579.19 356.92,579.19 356.92,627.79 202.82,627.79 201.54,685.28 31.85,685.28 31.83,746 
		453.22,746 842,746 842,697.33 842,686.33 842,681.5 842,475.67 667.15,475.84 667.15,524.44 513.05,524.44 	"/>
</g>
<g>
	<path class="st9" d="M358.87,736.24c0-14.07,4.32-72.8,4.32-72.8l-0.33,75.13l334.76-12.63l5.32-199.46l65.82-3.32l3.32,193.48
		l5.98-180.84l5.32,197.46l21.94,1.99l-5.32-229.38h26.48l0,240.13H164.42l1.98-45.99l25.93,4.65v33.24l85.1-2.66l-1.99-94.41
		l8.64,1.99l2.66,95.74c0,0,53.85-5.88,53.85,0.66c0,6.54-1.33-97.74-1.33-97.74h16.62L358.87,736.24z"/>
</g>
<g>
	<polygon class="st10" points="36.08,692.37 31.85,745.78 31.85,685.28 201.54,685.28 	"/>
</g>
<g>
	<polygon class="st10" points="202.82,627.79 201.54,685.28 207.61,632.86 356.92,627.79 	"/>
</g>
<g>
	<path class="st10" d="M356.92,579.19v48.6c0,0,3.62-44.31,3.62-46.46c0-2.14,152.52-2.14,152.52-2.14H356.92z"/>
</g>
<g>
	<polygon class="st10" points="824.2,475.84 671.03,480.27 667.15,524.44 667.15,475.84 	"/>
</g>
<g>
	<polygon class="st10" points="516.78,527.81 513.05,579.19 513.05,524.44 667.15,524.44 	"/>
</g>
<g>
	<g>
		<polygon class="st11" points="279.41,433.49 256.07,443.03 261.82,472.55 285.17,463.01 		"/>
	</g>
	<g>
		<polygon class="st11" points="577.18,311.81 600.53,302.28 617.09,327.38 593.75,336.92 		"/>
	</g>
	<g>
		<g>
			
				<rect x="191.45" y="276.87" transform="matrix(0.9257 -0.3783 0.3783 0.9257 -104.3129 137.778)" class="st12" width="214.22" height="115.1"/>
		</g>
		<g>
			<path class="st13" d="M261.62,445.17l-78.44-178.97l-1.85-4.22c0,0-29.33,12.44-31.1,15.88c-1.76,3.44,8.22,27.89,5.52,31.25
				c-2.7,3.37-30.21,9.18-35.86,14.2c-5.65,5.02-4.75,10.54-2.37,16.36c2.38,5.82,62.16,132.18,66.46,134.96
				c1.95,1.26,18.08-4.68,35.13-11.54C239.7,454.8,261.62,445.17,261.62,445.17z"/>
		</g>
		<g>
			<path class="st14" d="M180.27,264.9c0,0-4.3,2.21-1.17,10.44c3.14,8.23,13.03,25.24,9.51,28.26
				c-3.52,3.02-30.58,1.63-31.75,12.07c-1.17,10.44,62.27,147.41,62.27,147.41l42.49-17.91L180.27,264.9z"/>
		</g>
		<g>
			<path class="st15" d="M330.44,156.44c0,0,8.17-1.07,11.25,5.37c3.08,6.44,36.53,87.19,36.6,91.23c0.07,4.05-2.3,9.32-2.3,9.32
				L218.9,326.77c0,0-12.49,1.03-16.71-6.53c-4.22-7.56-36.32-85.01-32.28-91.19C173.96,222.87,330.44,156.44,330.44,156.44z"/>
		</g>
		<g>
			<path class="st16" d="M334.22,162.37c0,0,5.25,5.1,9.31,16.12c4.05,11.02,30.96,70.22,29.35,74.05
				c-1.61,3.83-10.61,7.28-10.61,7.28l-147.34,59.98c0,0-10.41-1.17-14.29-9.78c-3.89-8.61-29.99-73.86-28.44-78.72
				C173.75,226.43,323.88,159.24,334.22,162.37z"/>
		</g>
		<g>
			<path class="st17" d="M198.67,286.13c0,0,5.53,5.21,16.5,4.35c10.97-0.86,127.75-50.84,134.88-55.57
				c7.13-4.72,5.24-18.22,5.24-18.22s22.32,31.44,17.59,35.84c-4.73,4.4-157.95,67.26-157.95,67.26S193.49,317.23,198.67,286.13z"/>
		</g>
		<g>
			<path class="st18" d="M382,261.03l-166.2,65.74c0,0-21.75,9.84-31.11,15.44c-2.32,1.39-3.88,2.52-4.15,3.17
				c-1.38,3.28-0.73,7.09,1.85,13.96c2.58,6.87,8.69,22.94,13.27,25.82c4.58,2.88,11.34,1.71,11.34,1.71l196.15-81.28L382,261.03z"
				/>
		</g>
		<g>
			<path class="st19" d="M185.2,348.47l200.15-80.39l15.64,32.96l-204.57,80.43C196.42,381.47,182.4,359.35,185.2,348.47z"/>
		</g>
		<g>
			<path class="st20" d="M430.85,376.7l-204.17,83.2c0,0-7.46-7.14-12.38-19.17c-5.03-12.3-26.34-43.62-13.11-53.76l201.97-81.37
				L430.85,376.7z"/>
		</g>
		<g>
			<path class="st19" d="M430.87,376.69l-199.72,81.42c0,0-6.77-5.68-10.84-15.65c-4.08-9.97-16.56-35.65-15.39-38.76
				c1.17-3.11,5.66-6.27,5.66-6.27l197.52-79.75L430.87,376.69z"/>
		</g>
		<g>
			<path class="st21" d="M124.11,340.82l31.77-9.81l63.25,132.07c0,0-27.38,13.44-32.05,11.42
				C182.42,472.47,121.12,347.51,124.11,340.82z"/>
		</g>
		<g>
			<path class="st21" d="M155.76,309.1c0,0,27-5.38,28.88-9.09c1.88-3.71-6.72-19.22-6.72-19.22l-26.14,7.05L155.76,309.1z"/>
		</g>
		<g>
			<path class="st21" d="M193.83,268.18c0,0,29.65-11.66,32.74-15.19c3.09-3.53-12.65-36.49-12.65-36.49S218.7,252.59,193.83,268.18
				z"/>
		</g>
		<g>
			<path class="st22" d="M268.53,238.09c0,0-29.33,12.44-34.01,12.08c-4.67-0.35-16.53-34.91-16.53-34.91
				S239.85,244.38,268.53,238.09z"/>
		</g>
		<g>
			<path class="st21" d="M194.94,270.5c0,0,29.33-12.44,34.01-12.08c4.67,0.35,16.53,34.91,16.53,34.91S223.62,264.21,194.94,270.5z
				"/>
		</g>
		<g>
			<path class="st21" d="M269.34,239.66c0,0-29.65,11.66-32.74,15.19c-3.09,3.53,12.65,36.49,12.65,36.49
				S244.47,255.26,269.34,239.66z"/>
		</g>
		<g>
			<path class="st22" d="M274.15,235.36c0,0,29.65-11.66,32.74-15.19c3.09-3.53-12.65-36.49-12.65-36.49
				S299.02,219.77,274.15,235.36z"/>
		</g>
		<g>
			<path class="st21" d="M348.86,205.27c0,0-29.33,12.44-34.01,12.08c-4.67-0.36-16.53-34.91-16.53-34.91
				S320.18,211.56,348.86,205.27z"/>
		</g>
		<g>
			<path class="st21" d="M275.26,237.68c0,0,29.33-12.44,34.01-12.08c4.67,0.36,16.53,34.91,16.53,34.91
				S303.94,231.39,275.26,237.68z"/>
		</g>
		<g>
			<path class="st21" d="M349.66,206.84c0,0-29.65,11.66-32.74,15.19c-3.09,3.53,12.65,36.49,12.65,36.49
				S324.79,222.44,349.66,206.84z"/>
		</g>
		<g>
			<path class="st15" d="M190.19,271.48l40.19-16.2c7.75,19.36,14.83,35.89,21.22,49.58c-5.6-15.6-12.1-32.36-19.5-50.28
				l37.14-14.97c7.9,19.77,15.1,36.62,21.6,50.53c-5.7-15.87-12.33-32.95-19.89-51.22l39.79-16.04
				c7.73,19.3,14.79,35.79,21.17,49.46c-5.59-15.56-12.07-32.28-19.45-50.15l42.29-17.05c-14.27,4.95-28.57,10.13-42.92,15.54
				c-5.65-13.63-11.81-27.93-18.49-42.89c5.9,15.81,11.49,30.33,16.77,43.54c-13.29,5.02-26.61,10.24-39.97,15.65
				c-5.47-13.18-11.43-26.97-17.86-41.38c5.68,15.23,11.08,29.25,16.18,42.07c-12.29,4.99-24.61,10.15-36.97,15.47
				c-5.64-13.61-11.79-27.88-18.46-42.82c5.9,15.82,11.49,30.33,16.77,43.55C216.64,259.54,203.43,265.42,190.19,271.48z"/>
		</g>
		<g>
			<path class="st12" d="M405.18,312.19c0,0-202.41,80.48-205.32,83.26c-2.91,2.78-2.7,4.81-2.7,4.81s-2.18-10.79,4.02-13.29
				c6.2-2.5,10.58,1.6,10.58,1.6l183.63-79.85l9.99-3.59L405.18,312.19z"/>
		</g>
		<g>
			<path class="st12" d="M195.6,319.08c-0.9-10.5-2.22-18.8-2.22-18.8s8.8,19.71,13.06,22.62c4.25,2.92,9.36,3.88,9.36,3.88
				l-33.33,16.86C182.48,343.63,197.97,328.19,195.6,319.08z"/>
		</g>
		<g>
			
				<rect x="384.86" y="197.39" transform="matrix(0.9257 -0.3783 0.3783 0.9257 -59.88 205.0283)" class="st12" width="214.22" height="115.1"/>
		</g>
		<g>
			<path class="st13" d="M595.89,308.13l-69.34-182.69l-1.64-4.31c0,0,29.65-11.66,33.32-10.44c3.67,1.22,13.66,25.67,17.94,26.18
				c4.29,0.51,27.99-14.61,35.54-14.98c7.55-0.37,10.77,4.2,13.15,10.02c2.38,5.82,48.19,137.89,47.06,142.88
				c-0.51,2.26-16.18,9.32-33.16,16.37C618.28,299.66,595.89,308.13,595.89,308.13z"/>
		</g>
		<g>
			<path class="st14" d="M527.73,122.47c0,0,4.62-1.44,8.15,6.63c3.52,8.07,8.37,27.14,13,26.84c4.63-0.31,22.97-20.25,31.11-13.62
				c8.14,6.63,58.78,148.84,58.78,148.84l-42.88,16.97L527.73,122.47z"/>
		</g>
		<g>
			<path class="st15" d="M344.57,150.21c0,0-6.58,4.95-4.27,11.71c2.31,6.76,34.98,87.82,37.76,90.76c2.79,2.94,8.17,5.04,8.17,5.04
				l157.24-64.02c0,0,9.63-8.01,7.35-16.36c-2.28-8.35-33.6-86.12-40.82-87.7C502.8,88.05,344.57,150.21,344.57,150.21z"/>
		</g>
		<g>
			<path class="st16" d="M346.02,157.09c0,0-0.18,7.32,4.65,18.03c4.83,10.71,27.08,71.8,30.9,73.41
				c3.83,1.61,12.67-2.23,12.67-2.23l147.18-60.37c0,0,6.61-8.12,3.36-16.99c-3.26-8.87-30.31-73.73-34.83-76.11
				C505.44,90.44,351.21,147.61,346.02,157.09z"/>
		</g>
		<g>
			<path class="st17" d="M529.46,150.51c0,0-0.29,7.59-8.73,14.66c-8.43,7.07-126.8,53.17-135.2,54.79
				c-8.4,1.62-16.49-9.34-16.49-9.34s6.08,38.07,12.54,37.9c6.46-0.17,159.86-62.6,159.86-62.6S554.93,169.08,529.46,150.51z"/>
		</g>
		<g>
			<path class="st18" d="M376.93,262.65l167.96-70.8c0,0,22.86-8.39,33.66-11.02c2.68-0.65,4.62-0.95,5.28-0.68
				c3.33,1.36,5.54,4.53,8.52,11.24c2.97,6.71,9.87,22.46,8.57,27.74c-1.3,5.29-7.08,9.23-7.08,9.23l-198.18,80.99L376.93,262.65z"
				/>
		</g>
		<g>
			<path class="st19" d="M582.18,186.39l-203.72,84.64l11.87,34.5l206.99-87.74C597.33,217.79,591.94,192.14,582.18,186.39z"/>
		</g>
		<g>
			<path class="st20" d="M427.14,377.76l204.02-83.59c0,0,0.33-10.32-4.59-22.35c-5.03-12.3-11.74-49.59-28.29-47.56l-201.16,83.35
				L427.14,377.76z"/>
		</g>
		<g>
			<path class="st19" d="M427.11,377.77l199.59-81.74c0,0,0.85-8.8-3.22-18.77c-4.07-9.97-13.14-37.05-16.15-38.45
				c-3.01-1.4-8.43-0.52-8.43-0.52l-196.85,81.39L427.11,377.77z"/>
		</g>
		<g>
			<path class="st21" d="M620.98,137.34l-29.55,15.24l47.33,138.57c0,0,28.96-9.58,30.87-14.29
				C671.55,272.15,627.8,140.03,620.98,137.34z"/>
		</g>
		<g>
			<path class="st21" d="M576.17,136.86c0,0-23.04,15.07-26.98,13.74c-3.94-1.33-8.66-18.42-8.66-18.42l23.6-13.27L576.17,136.86z"
				/>
		</g>
		<g>
			<path class="st21" d="M520.35,134.31c0,0-29.33,12.44-34.01,12.08c-4.67-0.35-16.53-34.91-16.53-34.91
				S491.67,140.6,520.35,134.31z"/>
		</g>
		<g>
			<path class="st22" d="M445.95,165.15c0,0,29.65-11.66,32.74-15.19c3.09-3.53-12.65-36.49-12.65-36.49
				S470.82,149.55,445.95,165.15z"/>
		</g>
		<g>
			<path class="st21" d="M521.17,136.74c0,0-29.65,11.66-32.74,15.19c-3.09,3.53,12.65,36.49,12.65,36.49
				S496.3,152.34,521.17,136.74z"/>
		</g>
		<g>
			<path class="st21" d="M446.47,166.83c0,0,29.33-12.44,34.01-12.08c4.67,0.35,16.53,34.91,16.53,34.91
				S475.15,160.55,446.47,166.83z"/>
		</g>
		<g>
			<path class="st22" d="M440.02,167.13c0,0-29.33,12.44-34.01,12.08c-4.67-0.35-16.53-34.91-16.53-34.91
				S411.34,173.42,440.02,167.13z"/>
		</g>
		<g>
			<path class="st21" d="M365.62,197.97c0,0,29.65-11.66,32.74-15.19c3.09-3.53-12.65-36.49-12.65-36.49
				S390.49,182.37,365.62,197.97z"/>
		</g>
		<g>
			<path class="st21" d="M440.85,169.56c0,0-29.65,11.66-32.74,15.19c-3.09,3.53,12.65,36.49,12.65,36.49
				S415.98,185.16,440.85,169.56z"/>
		</g>
		<g>
			<path class="st21" d="M366.14,199.65c0,0,29.33-12.44,34.01-12.08c4.67,0.35,16.53,34.91,16.53,34.91
				S394.82,193.37,366.14,199.65z"/>
		</g>
		<g>
			<path class="st15" d="M525.25,134.12l-40.03,16.58c8.02,19.25,14.55,36,19.57,50.26c-6.93-15.06-14.02-31.57-21.29-49.55
				l-37,15.32c8.2,19.65,14.86,36.72,19.97,51.2c-7.05-15.32-14.27-32.16-21.67-50.5l-39.63,16.42c8,19.2,14.51,35.91,19.52,50.13
				c-6.91-15.02-13.99-31.5-21.24-49.42l-42.13,17.45c13.65-6.46,27.49-12.78,41.52-18.97c-5.52-13.68-11.13-28.21-16.84-43.56
				c6.86,15.42,13.04,29.7,18.52,42.82c13-5.72,26.17-11.33,39.49-16.82c-5.32-13.24-10.73-27.26-16.23-42.05
				c6.61,14.85,12.58,28.64,17.91,41.36c12.27-5.04,24.68-9.99,37.22-14.85c-5.51-13.66-11.11-28.16-16.81-43.49
				c6.86,15.42,13.04,29.7,18.52,42.83C498.01,144.12,511.55,139.06,525.25,134.12z"/>
		</g>
		<g>
			<path class="st12" d="M400.01,314.37c0,0,201.13-84.93,205.15-84.98c4.02-0.05,5.3,1.54,5.3,1.54s-6.01-9.23-12.18-6.67
				c-6.17,2.56-6.43,8.56-6.43,8.56L395.2,308.84L400.01,314.37z"/>
		</g>
		<g>
			<path class="st12" d="M554.72,171.89c-6.72-8.12-11.58-14.97-11.58-14.97s7.52,20.23,6.52,25.29c-0.99,5.06-3.97,9.32-3.97,9.32
				l35.6-11.31C581.28,180.22,559.41,180.04,554.72,171.89z"/>
		</g>
		<g>
			<path class="st23" d="M219.13,463.08l-21.34-44.56c-10.9,4.01-17.76,6.37-19.4,6.64c-5.25,0.86-12.91-1.69-20.62-5.36
				c13.89,28.42,27.24,53.79,29.32,54.69C191.75,476.52,219.13,463.08,219.13,463.08L219.13,463.08z M624.42,249.16l14.34,42
				c0,0,28.96-9.58,30.87-14.29c0.78-1.93-6.1-25.24-14.96-52.28c-2.69,5.68-6.38,11.57-11.23,15.52
				C642.08,241.24,635.34,244.41,624.42,249.16L624.42,249.16z M430.72,376.29l0.15,0.39l-0.02,0.01l-0.14,0.06l-191.59,78.08
				c-0.83,0.35-1.67,0.7-2.52,1.06l-5.44,2.22c0,0-0.01-0.01-0.03-0.02c-0.01-0.01-0.03-0.02-0.05-0.04
				c-0.75-0.65-6.95-6.23-10.77-15.59c-2.55-6.24-8.39-18.63-12.12-27.79c2.06-0.77,4.22-1.58,6.46-2.43
				c8.08-3.04,17.28-6.54,27.41-10.42c0.16-0.06,0.32-0.12,0.48-0.18c44.04-16.87,105.33-40.82,166.76-65.14
				c0.05-0.02,0.1-0.04,0.15-0.06c0.03-0.01,0.06-0.02,0.09-0.04c1.59-0.63,3.18-1.26,4.76-1.89c0.03-0.01,0.07-0.02,0.1-0.04
				c0.05-0.02,0.1-0.04,0.15-0.06c61.34-24.31,122.34-48.79,165.96-66.78c0.14-0.06,0.29-0.12,0.44-0.18
				c10.07-4.15,19.21-7.96,27.2-11.33c2.19-0.93,4.3-1.82,6.32-2.68c3.31,8.51,6.86,18.55,9.01,23.82
				c3.82,9.36,3.31,17.68,3.23,18.67c0,0.03,0,0.05-0.01,0.06c0,0.02,0,0.03,0,0.03l-5.46,2.24c-0.85,0.34-1.69,0.67-2.52,1
				L430.72,376.29z"/>
		</g>
	</g>
	<g>
		<polygon class="st24" points="607.23,303.76 633,293.23 650.12,318.1 624.35,328.63 		"/>
	</g>
	<g>
		<polygon class="st11" points="607.23,303.76 633,293.23 639.37,302.49 613.61,313.02 		"/>
	</g>
	<g>
		<polygon class="st24" points="251.34,449.58 225.57,460.1 230.77,489.85 256.53,479.32 		"/>
	</g>
	<g>
		<polygon class="st11" points="251.34,449.58 225.57,460.1 227.51,471.18 253.27,460.65 		"/>
	</g>
</g>
<g>
	<path class="st25" d="M658.28,324.59c-7.28-3.94-30.89-4.88-39.37-5c-5.07-0.07-34.72-5.07-40.73-3.78
		c-6.01,1.29-72.36,30.58-72.36,30.58l-38.9,13.91l-9.63,4.15c0,0,11.25,3.27,18.04,4.24c6.8,0.98,26.36-3.34,31.05-5.96
		c4.69-2.63,8.2-9.17,37.17-13.76c28.97-4.59,35.28-11.04,35.28-11.04s41.12,8.91,56.17,11.71c15.05,2.8,23.3-7.56,23.3-7.56
		L658.28,324.59z"/>
</g>
<g>
	<path class="st26" d="M766.12,260.33l-53.25,20.11c0,0-1.95,0.85-2.45,1.97c-0.5,1.12,0.16,5.09,0.16,5.09l18.34-6.73l70.61,47.01
		c0,0,12.48-19.38,4.04-41.29c-8.44-21.9-20.76-20.97-20.76-20.97S779.74,254.61,766.12,260.33z"/>
</g>
<g>
	<polygon class="st27" points="720.61,283.68 730.65,311.21 679.84,330.57 669.81,303.04 	"/>
</g>
<g>
	<path class="st25" d="M721.24,285.39c0,0-17.89,10.44-19.91,14.83c-2.02,4.39,1.02,39.69,4.39,45.2c3.37,5.51,9.07,0.39,9.07,0.39
		s13.25,3.57,15.6,3.11c20.05-3.91,55.94-24.78,69.07-21.34c0.09,0.02-0.91-50.33-37.88-52.36
		C751.33,274.66,738.15,277.42,721.24,285.39z"/>
</g>
<g>
	<path class="st27" d="M764.65,322.36l7.14-7.92l6.27,14.14l-6.35,4.98l-8.96-0.01C762.75,333.55,771.82,329,764.65,322.36z"/>
</g>
<g>
	<path class="st27" d="M757.81,291.26l1.31-1.44l-3.89,0.88l-7.4,7.52c0,0,3.42-1.32,6.69-0.4c3.28,0.93,3.97,4.72,3.92,6.01
		c-0.05,1.29-0.18,1.57-0.18,1.57l10.76,2.07C769.02,307.47,763.47,290.66,757.81,291.26z"/>
</g>
<g>
	<path class="st27" d="M765.59,310.75c0,0-8.44,1.2-11.22,5.74c-2.77,4.55-3.58,9.15-4.91,10.13c-1.33,0.97-6.19,2.48-6.19,2.48
		l-3.01-8.86c0,0,3.86-2.57,4.75-0.5c0.9,2.07-0.2,3.67-0.2,3.67s2.11-1.93,2.29-3.86C747.29,317.62,758.62,310.28,765.59,310.75z"
		/>
</g>
<g>
	<path class="st27" d="M742.17,272.59c1.66,4.55-1,10.54-6.03,14.09h0c0,0-25.72,18.98-27.77,23.26
		c-2.06,4.27,1.37,30.41,1.37,30.41s1.09,2.37,2.2,2.3c1.1-0.07,1.98-0.76,1.98-0.76l0.67,2.77c0,0-5,3.08-7.42,0.73
		c-2.41-2.35-1.46-7.74-2.52-7.53c-1.06,0.21-4.02-35.21-2.2-37.65c1.41-1.89,13.26-10.37,18.53-14.1c-0.3-0.45-0.55-0.95-0.74-1.49
		c-1.83-5.02,1.6-11.79,7.65-15.11C733.94,266.19,740.34,267.57,742.17,272.59z"/>
</g>
<g>
	<path class="st26" d="M781.65,278.76l-23.3,8.65c-9.48,3.52-14.71-3-14.86-2.94l-11.23,4.35l-2.16-7.27l32.6-11.38L781.65,278.76z"
		/>
</g>
<g>
	<path class="st28" d="M766.49,313.8c-11.08,2.02-10.25,6.6-15.34,15.77c-1.41,2.53-7.46,3.72-7.46,3.72l-4.64-13.3
		c0,0,4.53-2.85,5.72-0.33c1.19,2.52-0.26,4.06-0.26,4.06s1.88-1.74,1.8-3.61c-0.08-1.87-1.53-3.18-2.74-2.98
		c-1.2,0.2-5.75,1.76-5.75,1.76l5.73,16.28c0,0,7.49-1.95,8.75-5.15C756.44,319.54,756.64,317.65,766.49,313.8z"/>
</g>
<g>
	<path class="st29" d="M754.94,290.86c0,0,3.58-0.37,5.09,2.21c1.51,2.58,7.02,11.91,8,13.66c0.42,0.75,1.36,0.89,2.31,0.81
		c1.27-0.11,2.55-0.63,2.55-0.63s-7.31-12.56-9.42-16.25C761.36,286.98,754.94,290.86,754.94,290.86z"/>
</g>
<g>
	<path class="st30" d="M782.36,275.21l12.14-4.11l12,31.44c0,0,1.27,21.35-7.04,25.04c-14.09,6.26-23.94-48.38-22.81-49.88
		C778.68,275.02,782.36,275.21,782.36,275.21z"/>
</g>
<g>
	<path class="st29" d="M771.46,333.75c0,0,2.95-1.99,2.47-4.54c-0.48-2.56-2.19-11.82-2.56-13.53c-0.36-1.71,3.58-3.12,3.58-3.12
		s2.39,12.41,3.11,16.03C778.79,332.21,771.46,333.75,771.46,333.75z"/>
</g>
<g>
	<path class="st28" d="M732.26,308.73c0,0-1.4,14.6-1.1,15.78c0.31,1.17,5.96,16.28,5.96,16.28l3.5-0.69c0,0-2.96,2.34-4.36,2.31
		c-1.4-0.04-2.91-0.54-2.91-0.54l2.88-0.88c0,0-6.21-14.82-6.39-15.97c-0.18-1.15,1.17-16.24,1.17-16.24l-5.41,2.06
		c0,0,2.23-2.5,4.72-3.3s6.42,1.71,6.42,1.71L732.26,308.73z"/>
</g>
<g>
	<path class="st28" d="M740.88,323.3l-0.91-2.88c0.62-0.05,1.48,1.01,2.01,2.46c0.57,1.58,0.55,3.04-0.06,3.27L740.88,323.3z"/>
</g>
<g>
	
		<rect x="673.85" y="299.22" transform="matrix(0.9395 -0.3426 0.3426 0.9395 -67.7386 251.0049)" class="st31" width="5.65" height="36.08"/>
</g>
<g>
	<path class="st32" d="M753.7,302.55c0.57,1.57-0.56,3.43-2.53,4.15c-1.97,0.72-4.03,0.03-4.61-1.54c-0.57-1.57,0.56-3.43,2.53-4.15
		C751.06,300.29,753.13,300.98,753.7,302.55z"/>
</g>
<g>
	<path class="st32" d="M762.88,327.08c0.57,1.57-0.56,3.43-2.53,4.15c-1.97,0.72-4.03,0.03-4.61-1.55
		c-0.57-1.57,0.56-3.43,2.53-4.15C760.24,324.82,762.3,325.51,762.88,327.08z"/>
</g>
<g>
	<path class="st28" d="M746.62,299.21c0,0,6.39-0.66,8.1,2.03c1.71,2.69-0.34,4.77-0.34,4.77l3.1-0.63
		C757.48,305.38,759.99,295.58,746.62,299.21z"/>
</g>
<g>
	<path class="st28" d="M759.7,333.71c0,0,5.14-3.05,4.78-5.92c-0.36-2.87-3.14-3.22-3.14-3.22l2.35-1.7
		C763.7,322.88,771.81,328.92,759.7,333.71z"/>
</g>
<g>
	<path class="st33" d="M752.89,304.29c0.16,0.45-0.22,1-0.85,1.24c-0.64,0.23-1.28,0.05-1.45-0.4c-0.16-0.45,0.22-1,0.85-1.24
		C752.08,303.66,752.73,303.84,752.89,304.29z"/>
</g>
<g>
	<path class="st33" d="M762.14,328.8c0.16,0.45-0.22,1-0.85,1.24c-0.63,0.23-1.28,0.05-1.45-0.4c-0.16-0.45,0.22-1,0.85-1.24
		C761.33,328.17,761.98,328.35,762.14,328.8z"/>
</g>
<g>
	<path class="st28" d="M721.52,322.12c0,0,0.04,2.64,0.55,4.45c0.52,1.81,2.5,4.69,3.03,6.3c0.53,1.62-0.11,1.78,0.32,3.29
		c0.43,1.51,3.18,3.65,3.18,3.65s-3.31-1.79-4-3.2c-0.69-1.41-3.5-9.12-3.5-9.12L721.52,322.12z"/>
</g>
<g>
	<path class="st34" d="M781.65,278.76c0,0,7.95,2.6,8.31,8.67c0.36,6.08-1.18,14.54,1.6,22.78c2.77,8.24,7.26,9.79,7.26,9.79
		s-5.56-10.87-5.9-16.53c-0.34-5.67,0.67-11.81,0.67-11.81l1.75,11.16c0,0,2.42-6.78,0.81-13.05c-1.6-6.28-5.09-12.75-1.28-6.32
		l3.9,6.56c0,0,0.17-4.92-2.82-9.96c-2.99-5.04-12.93-10.09-12.93-10.09L781.65,278.76z"/>
</g>
<g>
	<path class="st28" d="M735.38,269.21c0,0,2.69,0.41,2.83,3.01c0.14,2.61-1.8,5.86-1.8,5.86l-11.14,4.02c0,0,3.32-2.32,3.46-3.53
		c0.14-1.21-1.36-3.61-1.36-3.61s2.94,1.42,3.17,2.37c0.23,0.96,0.22,1.25,0.22,1.25l4.12-1.39c0,0-0.27-1.69-1.18-2.75
		c-0.91-1.06-3.86-2.18-3.86-2.18l6.17,1.68c0,0,0.77-1.38,0.04-2.27c-0.73-0.89-4.89-1.98-4.89-1.98S734.25,268.64,735.38,269.21z"
		/>
</g>
<g>
	<path class="st35" d="M611.6,348.52l2.33-37.9l4.16,0.33l0.33,2.66c13.53-2.95,28.44-4.27,39.37,5c7.03,5.95,8.61,13.54,5.34,19.48
		c-3.81,6.95-13.7,11.88-21.11,12.69C637.13,351.31,611.6,348.52,611.6,348.52z"/>
</g>
<g>
	<polygon class="st4" points="731.44,335.38 725.96,321.92 731.01,308.78 729.84,325.02 736.23,340.98 734.78,341.43 	"/>
</g>
<g>
	<path class="st36" d="M741.78,288.71c0,0-2.31,5.77,0.43,6.77C744.95,296.47,741.78,288.71,741.78,288.71z"/>
</g>
<g>
	<path class="st36" d="M774.25,297.98c0,0-2.31,5.77,0.43,6.77C777.42,305.75,774.25,297.98,774.25,297.98z"/>
</g>
<g>
	<path class="st1" d="M442.26,578.85c0,0-1.42-4.01-0.71-13.44c0.71-9.43,3.55-8.83,3.55-8.83s5.68,3.41,11.13,0.8
		c5.45-2.61,6.63-5.42,6.63-5.42l13.02-0.2c0,0,6.39,11.23,12.08,12.84c5.68,1.6,17.05,0.4,19.18,1.6c2.13,1.2,2.6,3.41,3.08,5.21
		c0.47,1.8,0.47,7.22,0.47,7.22l-31.97,0.4c0,0-2.6-2.81-9.47-2.61c-6.87,0.2-8.52-0.2-8.52-0.2v3.01L442.26,578.85z"/>
</g>
<g>
	<path class="st2" d="M441.51,574.51c-0.02-0.24-0.04-0.5-0.06-0.76h1.57h15.33h51.86v3.25v1.66l-31.49,0.4c0,0-1.19-1.29-4.1-2.06
		c-1.38-0.37-3.16-0.61-5.37-0.55c-6.87,0.2-8.52-0.2-8.52-0.2v0.75v2.26l-12.45-0.27l-6.02-0.13c0,0-0.21-0.59-0.43-1.86
		C441.72,576.35,441.6,575.52,441.51,574.51z"/>
</g>
<g>
	<path class="st3" d="M100.29,648.43c0,0,29.41-43.99,39.47-54.59c4-4.22,11.02-6.34,13.27-8.14c3.41-2.73-2.99-4.02,1.33-6.78
		c3.93-2.51-6.12-64.51-6.12-64.51l40.8,4.33c0,0-3.71,63.14-5.18,69.38c-1.46,6.24-48.02,62.55-48.02,62.55L100.29,648.43z"/>
</g>
<g>
	<path class="st37" d="M153.58,552.31c0,0,18.87-0.11,22.2,4.55c3.32,4.65,9.21,21.32,9.21,21.32l3.61-52.23l-38.42,1.13
		L153.58,552.31z"/>
</g>
<g>
	<polygon class="st4" points="269.15,584.25 290.62,584.25 295.72,614.67 274.26,614.67 	"/>
</g>
<g>
	<path class="st5" d="M266.97,627.89c0,0-1.44-4.8-0.72-16.08c0.72-11.28,3.6-10.56,3.6-10.56s5.76,4.08,11.28,0.96
		c5.52-3.12,6.72-6.48,6.72-6.48l13.2-0.24c0,0,6.48,13.44,12.24,15.36c5.76,1.92,17.28,0.48,19.44,1.92
		c2.16,1.44,2.64,4.08,3.12,6.24c0.48,2.16,0.48,8.64,0.48,8.64l-32.4,0.48c0,0-2.64-3.36-9.6-3.12c-6.96,0.24-8.64-0.24-8.64-0.24
		v3.6L266.97,627.89z"/>
</g>
<g>
	<path class="st2" d="M266.27,623.31c0.12,1.38,0.27,2.43,0.4,3.18c0.17,0.95,0.3,1.4,0.3,1.4l18.72,0.48v-1.88v-1.72
		c0,0,0.97,0.28,4.48,0.31c1.11,0.01,2.48-0.01,4.16-0.06c2.49-0.09,4.43,0.29,5.89,0.81c0.59,0.21,1.1,0.44,1.54,0.67
		c1.52,0.81,2.17,1.64,2.17,1.64l23.01-0.34l9.39-0.14c0,0,0-0.45-0.01-1.16c-0.01-0.98-0.04-2.46-0.11-3.89h-70
		C266.23,622.85,266.25,623.08,266.27,623.31z"/>
</g>
<g>
	<path class="st6" d="M97.72,419.69c0,0,26.45,87.45,40.5,103.69c14.05,16.24,36.02,11.39,53.37,8.38c17.35-3,42.92-5.21,44.37-8.73
		c1.45-3.53-0.03,8.43,3.54,3.46c3.57-4.97,1.07,4.22,4.57,4.15c3.5-0.07,21.42,67.64,21.42,67.64l37.38-12
		c0,0-33.14-94.55-42.44-96.78c-9.29-2.22-69.62,0.36-73.74-5.16c-4.11-5.52-34.17-53.59-30.82-67.31
		c3.36-13.72-19.83-40.15-19.83-40.15S87.8,381.38,97.72,419.69z"/>
</g>
<g>
	<path class="st3" d="M133.89,461.67c0,0,14.29,48.87,28.26,51.19c13.96,2.33,85.27-7.81,85.27-7.81s-9.31,9.97-6.32,10.47
		c2.99,0.5,12.13-9.47,12.13-9.47s-9.47,12.47-7.48,14.63c1.99,2.16,12.3-8.48,12.3-8.48l23.27,60.84l-11.08,17.69
		c0,0-22.08-59.99-24.07-60.74c-1.99-0.75-2.74-0.58-3.08-2.66c-0.33-2.08-0.58-4.57-2.08-3.82c-1.5,0.75-2.41,4.41-2.83,1.91
		c-0.42-2.49-1.33-4.99-1.33-4.99s-1.5,1.75-2.41,2.41c-0.91,0.66-50.78,8.48-55.43,9.14c-4.65,0.66-22.7,0.96-31.75-3.82
		c-9.05-4.78-9.97-9.81-9.97-9.81l-21.11-50.36L133.89,461.67z"/>
</g>
<g>
	<path class="st7" d="M119.26,460.78c0,0-20.94-39.23-16.62-50.86c4.32-11.64,21.94-17.29,24.93-16.62
		c2.99,0.66,12.97,29.59,12.97,29.59l6.1-7.72l-14.96-31.23l2.94-1.02l-1.38-3.98c0,0,7.3,7.04,9.62,10.37
		c2.33,3.32,20.79,56.42,20.79,56.42l-11.81,1.42l-5.88-19.69l-5.76,3.74l2.33,16.62C142.53,447.82,126.24,465.77,119.26,460.78z"/>
</g>
<g>
	<path class="st27" d="M252.23,346.59c0,0,0.5,2.83-1,4.82c-1.5,1.99-2.54,12.28-2.54,12.28l8.69-5.64c0,0,1.83-7.81,0.5-10.14
		C256.56,345.59,252.9,344.92,252.23,346.59z"/>
</g>
<g>
	<path class="st12" d="M166.67,437.76l36.32-8.37c0,0,47.17-41.7,48.83-42.7c1.66-1,29.92-14.13,33.41-14.46
		c3.49-0.33,11.7,0.03,11.7,0.03l-2.35-5.92l9.41-5.42l-26.28-1.03l-86.16,46.94l-33.79,12.97L166.67,437.76z"/>
</g>
<g>
	<path class="st25" d="M113.05,429.99c7.97,2.23,31.2-2.08,39.5-3.84c4.96-1.05,34.99-2.74,40.56-5.32
		c5.58-2.59,64.56-41.83,64.79-42.01l33.87-25.99l8.47-6.18c0,0-11.69-0.7-18.54-0.15c-6.84,0.55-24.97,9.09-28.96,12.68
		c-3.99,3.6-5.96,10.76-33.2,21.65c-27.24,10.89-31.97,18.57-31.97,18.57s-42.07,0.4-57.37,1.01c-15.3,0.6-21.05,12.52-21.05,12.52
		L113.05,429.99z"/>
</g>
<g>
	<path class="st38" d="M61.1,295.87l19.3,53.55c0,0,0.82,1.96,1.93,2.48c1.11,0.51,5.09-0.08,5.09-0.08l-6.45-18.44l45.34-68.88
		c0,0-16.45-13.78-38.48-5.67c-22.03,8.1-21.28,20.43-21.28,20.43S55.58,282.16,61.1,295.87z"/>
</g>
<g>
	<polygon class="st27" points="83.75,341.72 111.43,332.11 130.02,383.2 102.34,392.82 	"/>
</g>
<g>
	<path class="st25" d="M85.47,341.13c0,0,10.17,18.05,14.53,20.13c4.36,2.08,39.7-0.42,45.27-3.7c5.56-3.28,0.53-9.06,0.53-9.06
		s3.77-13.19,3.35-15.55c-3.6-20.1-26.28-56.25-22.64-69.33c0.02-0.08-47.99,0.09-50.59,37.01
		C75.2,310.87,77.76,324.09,85.47,341.13z"/>
</g>
<g>
	<path class="st27" d="M123.1,298.27l-10.3,0.84l-12.3-13.08l29.26-9.81l4.65,15.17l-0.15,8.96
		C134.26,300.35,129.85,291.21,123.1,298.27z"/>
</g>
<g>
	<path class="st27" d="M83.9,292.33l6.57,10.98l0.82,3.9l7.4,7.51c0,0-1.27-3.44-0.29-6.7c0.98-3.26,4.78-3.89,6.07-3.82
		c1.29,0.07,1.57,0.2,1.57,0.2l9.54-5.52l-4.65-7.53C110.2,281.34,83.39,286.66,83.9,292.33z"/>
</g>
<g>
	<path class="st27" d="M111.5,297.16c0,0,1.07,8.46,5.57,11.3c4.5,2.84,9.1,3.72,10.05,5.06c0.95,1.35,2.38,6.23,2.38,6.23
		l-8.9,2.87c0,0-2.51-3.89-0.43-4.76c2.08-0.87,3.67,0.26,3.67,0.26s-1.9-2.14-3.82-2.35C118.1,315.56,110.93,304.12,111.5,297.16z"
		/>
</g>
<g>
	<path class="st27" d="M72.99,320c4.58-1.59,10.52,1.16,14,6.24l0,0c0,0,18.59,26,22.83,28.12c4.24,2.12,30.43-0.91,30.43-0.91
		s2.39-1.06,2.34-2.16c-0.06-1.11-0.73-2-0.73-2l2.78-0.63c0,0,3.01,5.05,0.62,7.43c-2.38,2.38-7.76,1.34-7.57,2.4
		c0.19,1.06-35.27,3.49-37.68,1.63c-1.87-1.44-10.17-13.41-13.82-18.75c-0.46,0.29-0.96,0.53-1.5,0.72
		c-5.05,1.75-11.76-1.77-14.99-7.88C66.47,328.13,67.94,321.76,72.99,320z"/>
</g>
<g>
	<path class="st38" d="M79.76,280.62l8.29,23.42c3.37,9.53-3.22,14.67-3.17,14.81l4.18,11.3l-7.3,2.05l-10.88-32.77L79.76,280.62z"
		/>
</g>
<g>
	<path class="st28" d="M114.56,296.3c1.85,11.11,6.44,10.35,15.53,15.58c2.51,1.44,3.6,7.52,3.6,7.52l-13.36,4.44
		c0,0-2.78-4.57-0.24-5.73c2.54-1.15,4.06,0.32,4.06,0.32s-1.71-1.91-3.58-1.86c-1.87,0.05-3.2,1.49-3.02,2.69
		c0.18,1.21,1.67,5.77,1.67,5.77l16.36-5.48c0,0-1.84-7.52-5.01-8.83C120.16,306.45,118.27,306.22,114.56,296.3z"/>
</g>
<g>
	<path class="st38" d="M91.46,307.51c0,0-0.31-3.58,2.29-5.06c2.6-1.47,12.01-6.84,13.78-7.79c0.76-0.41,0.91-1.35,0.84-2.3
		c-0.09-1.28-0.59-2.56-0.59-2.56s-12.67,7.12-16.39,9.17C87.67,301.03,91.46,307.51,91.46,307.51z"/>
</g>
<g>
	<path class="st38" d="M76.23,279.85l-3.92-12.2l31.62-11.52c0,0,16.68,0.4,20.24,8.76c6.04,14.18-44.05,21.86-45.53,20.71
		C75.97,283.53,76.23,279.85,76.23,279.85z"/>
</g>
<g>
	<path class="st38" d="M134.59,291.64c0,0-1.94-2.98-4.51-2.54c-2.56,0.44-11.85,2.01-13.57,2.35c-1.72,0.34-3.07-3.63-3.07-3.63
		s12.44-2.2,16.08-2.87C133.16,284.29,134.59,291.64,134.59,291.64z"/>
</g>
<g>
	<path class="st28" d="M108.98,330.46c0,0,14.58,1.62,15.76,1.34c1.18-0.29,16.37-5.71,16.37-5.71l-0.63-3.51
		c0,0,2.3,2.99,2.24,4.39c-0.06,1.4-0.58,2.91-0.58,2.91l-0.84-2.9c0,0-14.91,5.99-16.06,6.15c-1.15,0.16-16.22-1.42-16.22-1.42
		l1.98,5.44c0,0-2.46-2.27-3.23-4.77c-0.77-2.5,1.8-6.39,1.8-6.39L108.98,330.46z"/>
</g>
<g>
	<path class="st28" d="M123.67,322.06l-2.9,0.86c-0.04-0.62,1.04-1.47,2.49-1.97c1.58-0.55,3.05-0.5,3.27,0.11L123.67,322.06z"/>
</g>
<g>
	
		<rect x="98.62" y="383.34" transform="matrix(0.9446 -0.3282 0.3282 0.9446 -120.2905 59.6859)" class="st31" width="36.08" height="5.65"/>
</g>
<g>
	<path class="st32" d="M103.13,308.93c1.58-0.55,3.42,0.61,4.11,2.59c0.69,1.98-0.03,4.03-1.62,4.58c-1.58,0.55-3.42-0.61-4.11-2.59
		C100.82,311.53,101.54,309.48,103.13,308.93z"/>
</g>
<g>
	<path class="st32" d="M127.79,300.12c1.58-0.55,3.42,0.61,4.11,2.59c0.69,1.98-0.03,4.03-1.62,4.58c-1.58,0.55-3.42-0.61-4.11-2.59
		C125.49,302.72,126.21,300.67,127.79,300.12z"/>
</g>
<g>
	<path class="st28" d="M99.67,315.96c0,0-0.57-6.4,2.15-8.07c2.71-1.67,4.77,0.41,4.77,0.41l-0.58-3.11
		C106.01,305.19,96.25,302.53,99.67,315.96z"/>
</g>
<g>
	<path class="st28" d="M134.37,303.4c0,0-2.97-5.19-5.85-4.87c-2.87,0.31-3.27,3.09-3.27,3.09l-1.66-2.38
		C123.6,299.24,129.77,291.22,134.37,303.4z"/>
</g>
<g>
	<path class="st33" d="M104.85,309.76c0.45-0.16,1,0.23,1.22,0.87c0.22,0.64,0.03,1.28-0.42,1.44c-0.45,0.16-1-0.23-1.22-0.87
		C104.21,310.56,104.4,309.92,104.85,309.76z"/>
</g>
<g>
	<path class="st33" d="M129.5,300.88c0.45-0.16,1,0.23,1.22,0.87c0.22,0.64,0.03,1.28-0.42,1.44c-0.45,0.16-1-0.23-1.22-0.87
		C128.85,301.69,129.04,301.04,129.5,300.88z"/>
</g>
<g>
	<path class="st28" d="M122.2,341.4c0,0,2.64,0,4.45-0.48c1.82-0.49,4.73-2.43,6.35-2.94c1.62-0.51,1.78,0.14,3.29-0.27
		c1.51-0.41,3.69-3.13,3.69-3.13s-1.84,3.29-3.26,3.95c-1.42,0.67-9.17,3.36-9.17,3.36L122.2,341.4z"/>
</g>
<g>
	<path class="st39" d="M79.76,280.62c0,0,2.72-7.91,8.8-8.18c6.08-0.27,14.52,1.4,22.8-1.25c8.28-2.65,9.9-7.11,9.9-7.11
		s-10.95,5.39-16.62,5.65c-5.67,0.26-11.8-0.85-11.8-0.85l11.18-1.58c0,0-6.74-2.52-13.04-1.01c-6.3,1.51-12.82,4.9-6.34,1.19
		l6.62-3.8c0,0-4.92-0.25-10,2.67c-5.08,2.92-10.29,12.78-10.29,12.78L79.76,280.62z"/>
</g>
<g>
	<path class="st7" d="M55.46,275.95c0,8.68,4.52,16.47,4.52,16.47l23.92-0.08l44.72-22.05c0,0-5.08-16.97-8.52-19.7
		c-3.44-2.73-26.04-5.84-36.91-2.82C75.53,249.89,55.46,267.27,55.46,275.95z"/>
</g>
<g>
	<path class="st28" d="M69.51,326.73c0,0,0.45-2.69,3.06-2.79c2.61-0.1,5.83,1.89,5.83,1.89l3.85,11.2c0,0-2.27-3.35-3.48-3.51
		c-1.2-0.16-3.63,1.31-3.63,1.31s1.46-2.91,2.42-3.13c0.96-0.22,1.25-0.21,1.25-0.21l-1.32-4.14c0,0-1.7,0.24-2.77,1.14
		c-1.07,0.89-2.24,3.83-2.24,3.83l1.78-6.14c0,0-1.37-0.79-2.27-0.08c-0.9,0.72-2.05,4.86-2.05,4.86S68.92,327.86,69.51,326.73z"/>
</g>
<g>
	<path class="st35" d="M153.28,396.34l6.11,37.47l-4.13,0.6l-0.91-2.52c-12.54,5.87-26.79,10.45-39.5,3.84
		c-8.17-4.25-11.39-11.3-9.52-17.81c2.18-7.62,10.74-14.62,17.78-17.04C127.77,399.26,153.28,396.34,153.28,396.34z"/>
</g>
<g>
	<polygon class="st4" points="135.62,331.68 122.07,336.96 109.01,331.71 125.22,333.13 141.29,326.98 141.71,328.43 	"/>
</g>
<g>
	<path class="st36" d="M91.41,317.14c0,0-0.82,6.16,2.08,6.46C96.39,323.89,91.41,317.14,91.41,317.14z"/>
</g>
<g>
	<path class="st36" d="M78.07,305.54c0,0-2.04,5.87,0.75,6.74C81.61,313.15,78.07,305.54,78.07,305.54z"/>
</g>
<g>
	<path class="st40" d="M123.71,643.44l-1.23-0.98l1.98-2.48l1.23,0.98L123.71,643.44z M126.68,639.72l-1.23-0.98l1.96-2.47
		l1.23,0.98L126.68,639.72z M129.61,636.01l-1.23-0.97l1.95-2.47l1.23,0.97L129.61,636.01z M132.54,632.29l-1.23-0.97l1.94-2.48
		l1.24,0.97L132.54,632.29z M135.46,628.57l-1.24-0.97l1.94-2.48l1.24,0.97L135.46,628.57z M138.36,624.85l-1.24-0.97l1.93-2.49
		l1.24,0.96L138.36,624.85z M141.26,621.12l-1.24-0.96l1.92-2.49l1.24,0.96L141.26,621.12z M144.14,617.37l-1.25-0.96l1.91-2.49
		l1.25,0.95L144.14,617.37z M147.01,613.63l-1.25-0.95l1.9-2.5l1.25,0.95L147.01,613.63z M149.87,609.87l-1.25-0.95
		c0.64-0.84,1.27-1.68,1.89-2.51l1.26,0.94C151.14,608.18,150.51,609.02,149.87,609.87z M152.71,606.09l-1.26-0.94
		c0.63-0.85,1.26-1.69,1.88-2.52l1.26,0.93C153.97,604.4,153.34,605.24,152.71,606.09z M155.53,602.3l-1.26-0.93
		c0.63-0.86,1.25-1.7,1.86-2.54l1.27,0.93C156.79,600.59,156.16,601.44,155.53,602.3z M158.32,598.48l-1.27-0.92
		c0.63-0.87,1.24-1.72,1.84-2.55l1.28,0.91C159.57,596.76,158.96,597.61,158.32,598.48z M161.08,594.64l-1.28-0.91
		c0.63-0.89,1.23-1.75,1.8-2.57l1.29,0.89C162.32,592.88,161.71,593.75,161.08,594.64z M163.79,590.75l-1.3-0.89
		c0.62-0.92,1.21-1.79,1.74-2.61l1.31,0.86C165.01,588.94,164.42,589.82,163.79,590.75z M166.41,586.78l-1.33-0.84
		c0.64-1.01,1.18-1.91,1.6-2.67l1.37,0.77C167.61,584.82,167.06,585.74,166.41,586.78z M276.56,582.87
		c-0.03-0.67-0.2-1.66-0.51-2.95l1.53-0.37c0.34,1.41,0.52,2.47,0.55,3.26L276.56,582.87z M168.8,582.59l-1.42-0.67
		c0.33-0.7,0.45-1.09,0.49-1.29c0.08-0.4,0.14-0.9,0.2-1.48l1.56,0.16c-0.06,0.64-0.14,1.18-0.22,1.62
		C169.33,581.36,169.13,581.9,168.8,582.59z M275.66,578.42c-0.25-0.91-0.55-1.92-0.89-3l1.5-0.47c0.34,1.1,0.65,2.12,0.9,3.05
		L275.66,578.42z M169.77,577.72l-1.57-0.1c0.06-0.92,0.11-1.97,0.15-3.11l1.57,0.05C169.88,575.71,169.83,576.78,169.77,577.72z
		 M274.29,573.93c-0.31-0.94-0.64-1.94-1-2.97l1.48-0.51c0.36,1.05,0.7,2.05,1.01,3L274.29,573.93z M169.96,572.97l-1.57-0.04
		c0.02-0.99,0.04-2.04,0.05-3.13l1.57,0.02C170,570.92,169.98,571.97,169.96,572.97z M272.78,569.47c-0.34-0.96-0.69-1.94-1.06-2.96
		l1.48-0.54c0.37,1.02,0.72,2.01,1.06,2.97L272.78,569.47z M170.02,568.25l-1.57-0.01l0-1.57l0-1.57l1.57-0.01l0,1.58L170.02,568.25
		z M271.18,565.04c-0.35-0.96-0.72-1.95-1.1-2.95l1.47-0.55c0.38,1,0.74,1.99,1.1,2.96L271.18,565.04z M168.44,563.53
		c-0.01-1.04-0.02-2.09-0.03-3.14l1.57-0.02c0.01,1.05,0.02,2.11,0.03,3.15L168.44,563.53z M269.53,560.62
		c-0.37-0.97-0.74-1.95-1.12-2.94l1.47-0.56c0.38,0.99,0.76,1.98,1.12,2.95L269.53,560.62z M168.39,558.82
		c-0.02-1.05-0.03-2.11-0.05-3.14l1.57-0.03c0.02,1.04,0.04,2.09,0.05,3.15L168.39,558.82z M267.84,556.22
		c-0.38-0.97-0.76-1.95-1.14-2.93l1.46-0.57c0.39,0.99,0.77,1.97,1.14,2.94L267.84,556.22z M168.3,554.11l-0.07-3.14l1.57-0.04
		l0.07,3.15L168.3,554.11z M266.13,551.83l-1.16-2.92l1.46-0.58l1.16,2.93L266.13,551.83z M168.2,549.4l-0.08-3.14l1.57-0.04
		l0.08,3.15L168.2,549.4z M264.39,547.45l-1.18-2.93l1.46-0.59l1.18,2.93L264.39,547.45z M168.06,544.69l-0.1-3.14l1.57-0.05
		l0.1,3.15L168.06,544.69z M262.62,543.06l-1.18-2.91l1.45-0.59l1.19,2.92L262.62,543.06z M467.37,540.18l-1.09-1.13
		c0,0,0.83-0.79,2.28-2.21l1.09,1.13C468.19,539.38,467.37,540.18,467.37,540.18z M167.91,539.97l-0.05-1.43l0.77-0.82
		c0.78-0.03,0.78,0.24,0.85,2.19L167.91,539.97z M260.84,538.69l-1.19-2.91l1.45-0.6l1.2,2.91L260.84,538.69z M470.79,536.87
		l-1.09-1.13l2.26-2.2l1.1,1.13L470.79,536.87z M259.05,534.33l-1.2-2.91l1.45-0.6l1.21,2.91L259.05,534.33z M474.18,533.57
		l-1.1-1.12l2.26-2.2l1.1,1.12L474.18,533.57z M477.57,530.26l-1.1-1.12l2.25-2.2l1.1,1.12L477.57,530.26z M257.24,529.97l-1.21-2.9
		l1.45-0.61l1.21,2.91L257.24,529.97z M480.94,526.95l-1.1-1.12l2.24-2.21l1.1,1.12L480.94,526.95z M255.42,525.61l-1.22-2.9
		l1.45-0.61l1.22,2.91L255.42,525.61z M484.3,523.64l-1.1-1.12l2.24-2.21l1.11,1.12L484.3,523.64z M253.59,521.26l-1.23-2.9
		l1.45-0.61l1.23,2.9L253.59,521.26z M487.66,520.32l-1.11-1.11l2.23-2.22l1.11,1.11L487.66,520.32z M491.01,516.99l-1.11-1.11
		l2.23-2.22l1.11,1.11L491.01,516.99z M251.74,516.91l-1.24-2.9l1.44-0.62l1.24,2.9L251.74,516.91z M494.35,513.65l-1.11-1.11
		l2.22-2.23l1.11,1.11L494.35,513.65z M184.11,513.2l-0.01-1.57c1.03,0,2.07-0.01,3.14-0.03l0.02,1.57
		C186.19,513.18,185.14,513.19,184.11,513.2z M182.53,513.2c-1.08,0-2.13-0.02-3.15-0.03l0.03-1.57c1.01,0.02,2.06,0.03,3.13,0.03
		L182.53,513.2z M188.84,513.14l-0.03-1.57c1.03-0.02,2.08-0.04,3.14-0.07l0.04,1.57C190.92,513.1,189.87,513.12,188.84,513.14z
		 M177.8,513.12c-1.1-0.03-2.15-0.07-3.16-0.13l0.08-1.57c1,0.05,2.04,0.09,3.12,0.12L177.8,513.12z M193.56,513.02l-0.05-1.57
		c1.04-0.03,2.08-0.07,3.14-0.11l0.06,1.57C195.65,512.95,194.6,512.99,193.56,513.02z M173.06,512.9
		c-1.12-0.08-2.18-0.17-3.16-0.28l0.17-1.56c0.96,0.11,2,0.2,3.1,0.27L173.06,512.9z M198.28,512.85l-0.06-1.57
		c1.04-0.04,2.09-0.09,3.14-0.14l0.07,1.57C200.38,512.76,199.33,512.8,198.28,512.85z M203,512.63l-0.08-1.57
		c1.04-0.05,2.09-0.11,3.14-0.16l0.09,1.57C205.09,512.53,204.05,512.58,203,512.63z M249.89,512.56l-1.25-2.9l1.44-0.62l1.25,2.9
		L249.89,512.56z M168.31,512.42c-1.22-0.18-2.29-0.39-3.17-0.63l0.41-1.52c0.82,0.22,1.83,0.42,2.99,0.59L168.31,512.42z
		 M207.72,512.38l-0.09-1.57l3.14-0.19l0.1,1.57L207.72,512.38z M212.43,512.1l-0.1-1.57c1.05-0.07,2.1-0.13,3.14-0.2l0.1,1.57
		C214.53,511.96,213.49,512.03,212.43,512.1z M217.14,511.79l-0.11-1.57c1.06-0.07,2.1-0.15,3.13-0.22l0.11,1.57
		C219.25,511.64,218.2,511.71,217.14,511.79z M221.85,511.45l-0.12-1.57l3.13-0.24l0.12,1.57L221.85,511.45z M163.55,511.26
		c-0.74-0.32-1.28-0.68-1.66-1.09c-0.3-0.33-0.62-0.73-0.98-1.18l1.23-0.97c0.33,0.42,0.64,0.79,0.92,1.11
		c0.15,0.16,0.45,0.42,1.1,0.69L163.55,511.26z M226.56,511.09l-0.12-1.57l3.13-0.25l0.13,1.57L226.56,511.09z M231.27,510.71
		l-0.13-1.56l3.13-0.26l0.13,1.56L231.27,510.71z M235.97,510.31l-0.14-1.56l3.13-0.28l0.14,1.56L235.97,510.31z M497.68,510.3
		l-1.11-1.11l2.21-2.24l1.12,1.1L497.68,510.3z M240.68,509.89l-0.14-1.56l3.13-0.29l0.15,1.56L240.68,509.89z M245.38,509.45
		l-0.15-1.56c1.49-0.14,2.57-0.25,3.14-0.31l0.16,1.56C247.96,509.2,246.88,509.31,245.38,509.45z M159.95,507.71
		c-0.57-0.77-1.18-1.64-1.84-2.59l1.29-0.89c0.64,0.94,1.25,1.79,1.81,2.55L159.95,507.71z M501,506.94l-1.12-1.1l2.2-2.24l1.12,1.1
		L501,506.94z M157.22,503.81c-0.56-0.83-1.14-1.71-1.74-2.64l1.32-0.86c0.6,0.91,1.18,1.79,1.73,2.62L157.22,503.81z
		 M504.31,503.57l-1.12-1.1l2.2-2.25l1.13,1.09L504.31,503.57z M507.6,500.18l-1.13-1.09l2.18-2.26l1.13,1.09L507.6,500.18z
		 M154.62,499.85c-0.56-0.86-1.12-1.75-1.7-2.66l1.33-0.84c0.57,0.91,1.14,1.79,1.69,2.65L154.62,499.85z M510.88,496.78l-1.13-1.09
		c0.73-0.77,1.46-1.53,2.17-2.28l1.14,1.08C512.34,495.25,511.62,496.01,510.88,496.78z M152.08,495.86
		c-0.55-0.88-1.11-1.77-1.67-2.68l1.34-0.83c0.56,0.9,1.11,1.79,1.66,2.67L152.08,495.86z M514.14,493.36l-1.14-1.08
		c0.73-0.78,1.45-1.54,2.15-2.29l1.15,1.07C515.59,491.81,514.87,492.58,514.14,493.36z M149.58,491.84
		c-0.55-0.89-1.1-1.79-1.65-2.69l1.34-0.82c0.55,0.89,1.09,1.79,1.64,2.68L149.58,491.84z M616.91,490.27l-1.56-0.18l0.37-3.13
		l1.56,0.18L616.91,490.27z M517.37,489.9l-1.15-1.07c0.73-0.79,1.44-1.56,2.13-2.31l1.16,1.06
		C518.82,488.33,518.1,489.11,517.37,489.9z M147.12,487.81l-1.63-2.7l1.35-0.81l1.63,2.69L147.12,487.81z M520.56,486.41
		l-1.17-1.05c0.73-0.81,1.43-1.59,2.09-2.35l1.18,1.04C522,484.81,521.3,485.6,520.56,486.41z M617.46,485.57l-1.56-0.18l0.36-3.13
		l1.56,0.18L617.46,485.57z M144.68,483.77l-1.62-2.7l1.35-0.8l1.61,2.7L144.68,483.77z M523.71,482.86l-1.19-1.03
		c0.73-0.84,1.41-1.64,2.03-2.39l1.21,1C525.13,481.21,524.44,482.01,523.71,482.86z M618,480.87l-1.56-0.18l0.36-3.13l1.56,0.18
		L618,480.87z M142.26,479.71l-1.61-2.71l1.35-0.8l1.6,2.71L142.26,479.71z M526.76,479.21l-1.23-0.98
		c0.75-0.93,1.38-1.76,1.88-2.47l1.28,0.91C528.18,477.4,527.53,478.26,526.76,479.21z M618.53,476.17l-1.56-0.18l0.35-3.13
		l1.56,0.17L618.53,476.17z M139.85,475.64l-1.6-2.72l1.36-0.79l1.59,2.72L139.85,475.64z M529.6,475.31l-1.34-0.82
		c0.42-0.69,0.58-1.09,0.65-1.31c0.11-0.39,0.24-0.86,0.37-1.4l1.52,0.38c-0.14,0.56-0.27,1.05-0.39,1.46
		C530.29,474.08,530.02,474.63,529.6,475.31z M137.46,471.56c-1-1.72-1.59-2.74-1.59-2.74l1.36-0.78c0,0,0.59,1.02,1.59,2.73
		L137.46,471.56z M619.06,471.48l-1.56-0.17l0.35-3.13l1.56,0.17L619.06,471.48z M531.17,470.61l-1.53-0.35
		c0.21-0.91,0.43-1.94,0.66-3.06l1.54,0.32C531.61,468.66,531.38,469.7,531.17,470.61z M619.58,466.79l-1.56-0.17l0.34-3.13
		l1.56,0.17L619.58,466.79z M532.16,465.97l-1.54-0.31c0.2-0.98,0.4-2.01,0.61-3.08l1.54,0.3
		C532.56,463.96,532.35,464.99,532.16,465.97z M620.09,462.09l-1.56-0.17l0.34-3.13l1.56,0.17L620.09,462.09z M533.06,461.33
		l-1.54-0.29c0.19-1,0.38-2.04,0.58-3.09l1.54,0.29C533.45,459.29,533.25,460.32,533.06,461.33z M620.59,457.4l-1.56-0.17l0.32-3.06
		l0.79,0.01l0.77,0.15L620.59,457.4z M533.93,456.68l-1.55-0.28c0.19-1.02,0.37-2.05,0.56-3.09l1.55,0.28
		C534.3,454.62,534.11,455.66,533.93,456.68z M621.09,452.7l-1.56-0.16l0.32-3.12l1.56,0.16L621.09,452.7z M534.77,452.03
		l-1.55-0.27l0.55-3.1l1.55,0.27L534.77,452.03z M621.56,448.01l-1.56-0.16l0.31-3.13l1.56,0.15L621.56,448.01z M535.59,447.38
		l-1.55-0.27l0.54-3.1l1.55,0.27L535.59,447.38z M622.02,443.3l-1.56-0.15l0.3-3.13l1.56,0.15L622.02,443.3z M536.39,442.72
		l-1.55-0.27l0.53-3.1l1.55,0.26L536.39,442.72z M622.47,438.6l-1.56-0.14l0.28-3.13l1.56,0.14L622.47,438.6z M537.19,438.07
		l-1.55-0.26l0.52-3.1l1.55,0.26L537.19,438.07z M622.89,433.89l-1.56-0.13c0.09-1.08,0.18-2.13,0.26-3.14l1.56,0.12
		C623.07,431.76,622.98,432.81,622.89,433.89z M537.97,433.4l-1.55-0.26l0.52-3.11l1.55,0.26L537.97,433.4z M623.27,429.18
		l-1.57-0.12c0.08-1.1,0.16-2.15,0.22-3.14l1.57,0.1C623.42,427.01,623.35,428.07,623.27,429.18z M538.74,428.74l-1.55-0.25
		c0.21-1.25,0.33-1.99,0.34-2.06l0.77,0.12l0.6-0.51C539.14,426.3,539.14,426.3,538.74,428.74z M623.58,424.45l-1.57-0.09
		c0.06-1.16,0.11-2.21,0.14-3.13l1.57,0.04C623.7,422.2,623.65,423.27,623.58,424.45z M622.18,419.68c0-1.63-0.11-2.04-0.14-2.12
		l0,0c-0.01,0-0.06-0.06-0.19-0.14l0.89-1.3c0.36,0.25,0.6,0.51,0.73,0.78c0.14,0.31,0.28,0.88,0.29,2.78L622.18,419.68z
		 M620.59,416.78c-0.74-0.3-1.72-0.64-2.91-0.99l0.45-1.51c1.24,0.37,2.27,0.72,3.06,1.04L620.59,416.78z M616.18,415.36
		c-0.93-0.26-1.95-0.52-3.03-0.79l0.38-1.52c1.1,0.27,2.13,0.54,3.07,0.8L616.18,415.36z M611.62,414.2c-0.98-0.23-2-0.47-3.06-0.71
		l0.34-1.53c1.07,0.24,2.1,0.48,3.08,0.71L611.62,414.2z M607.03,413.16c-1-0.22-2.03-0.44-3.07-0.66l0.32-1.54
		c1.05,0.22,2.08,0.44,3.09,0.66L607.03,413.16z M602.42,412.18c-1.01-0.21-2.04-0.42-3.08-0.62l0.31-1.54
		c1.04,0.21,2.08,0.42,3.09,0.63L602.42,412.18z M597.79,411.25c-1.02-0.2-2.05-0.4-3.09-0.6l0.3-1.54c1.04,0.2,2.07,0.4,3.09,0.6
		L597.79,411.25z M593.16,410.36l-3.09-0.58l0.29-1.54l3.1,0.58L593.16,410.36z M588.53,409.49l-3.1-0.56l0.28-1.55l3.1,0.56
		L588.53,409.49z M583.88,408.65l-3.1-0.55l0.27-1.55l3.1,0.55L583.88,408.65z M579.23,407.83l-3.1-0.54l0.27-1.55l3.11,0.54
		L579.23,407.83z M574.58,407.02l-3.11-0.53l0.26-1.55l3.11,0.53L574.58,407.02z M569.92,406.24l-3.11-0.52l0.26-1.55l3.11,0.52
		L569.92,406.24z M565.25,405.46l-1.97-0.32l0,0c-0.01,0-0.44-0.04-1.16-0.14l0.21-1.56c0.72,0.1,1.13,0.14,1.14,0.14l2.03,0.33
		L565.25,405.46z M560.55,404.77c-1.03-0.17-2.08-0.37-3.13-0.59l0.33-1.54c1.03,0.22,2.06,0.42,3.06,0.58L560.55,404.77z
		 M555.86,403.82c-1.05-0.25-2.09-0.53-3.08-0.83l0.45-1.51c0.97,0.29,1.98,0.56,3,0.81L555.86,403.82z M551.26,402.52
		c-1.04-0.34-2.05-0.72-3-1.11l0.6-1.45c0.92,0.38,1.89,0.73,2.9,1.07L551.26,402.52z M546.78,400.77
		c-1.02-0.47-1.98-0.96-2.86-1.47l0.79-1.36c0.84,0.49,1.76,0.96,2.73,1.4L546.78,400.77z M542.54,398.45
		c-0.95-0.63-1.81-1.29-2.58-1.98l1.05-1.17c0.71,0.64,1.52,1.26,2.4,1.84L542.54,398.45z M538.79,395.32
		c-0.78-0.84-1.44-1.73-1.98-2.65l1.36-0.79c0.48,0.82,1.07,1.61,1.77,2.37L538.79,395.32z M536.07,391.18
		c-0.42-0.99-0.71-2.03-0.86-3.11l-0.02-0.11l0.78-0.1l0.79-0.02c0.14,0.95,0.39,1.86,0.76,2.73L536.07,391.18z M536.71,386.35
		l-1.57-0.1c0.07-1.04,0.31-2.13,0.72-3.26l1.48,0.53C536.98,384.51,536.76,385.46,536.71,386.35z M537.91,382.14l-1.42-0.67
		c0.43-0.91,0.97-1.86,1.6-2.83l1.31,0.86C538.81,380.41,538.31,381.3,537.91,382.14z M540.28,378.24l-1.27-0.93
		c0.6-0.82,1.27-1.66,1.99-2.51l1.19,1.02C541.49,376.65,540.85,377.46,540.28,378.24z M543.22,374.67l-1.16-1.06
		c0.68-0.75,1.42-1.52,2.2-2.3l1.11,1.11C544.61,373.18,543.88,373.94,543.22,374.67z M546.48,371.34l-1.08-1.14
		c0.76-0.72,1.54-1.44,2.34-2.15l1.04,1.17C548,369.92,547.23,370.63,546.48,371.34z M549.95,368.2l-1.02-1.19
		c0.8-0.69,1.61-1.37,2.43-2.03l0.99,1.22C551.55,366.85,550.74,367.52,549.95,368.2z M553.57,365.21l-0.98-1.23
		c0.83-0.66,1.67-1.31,2.5-1.94l0.95,1.25C555.22,363.92,554.39,364.56,553.57,365.21z M557.29,362.35l-0.94-1.26
		c0.87-0.64,1.72-1.27,2.56-1.86l0.91,1.28C559,361.1,558.15,361.72,557.29,362.35z M561.1,359.6l-0.9-1.29
		c0.9-0.63,1.77-1.23,2.6-1.8l0.88,1.3C562.86,358.38,562,358.97,561.1,359.6z M564.99,356.95l-0.87-1.31
		c0.96-0.64,1.85-1.22,2.65-1.73l0.85,1.32C566.82,355.74,565.94,356.31,564.99,356.95z M568.94,354.39l-0.84-1.33
		c1.7-1.07,2.72-1.67,2.72-1.67l0.8,1.35C571.61,352.75,570.61,353.34,568.94,354.39z"/>
</g>
<g>
	<path class="st25" d="M254.06,375.6c-16.17,15.57,22.54-3.43,26.6-5.75c4.06-2.32,14.96,3.66,17.45,2.16
		c2.49-1.5,2.99-3.82,2.99-3.82s-15.04-4.4-16.37-4.24c-1.33,0.17-2.6-0.56-2.6-0.56s20.05-1.52,21.8-2.44
		c1.75-0.91,1.83-4.07,1.25-4.74c-0.58-0.67-3.88-1.16-3.88-1.16l-17.16,2.63c0,0,21.14-5.13,19.96-8.12
		c-1.18-2.99-4.66-2.96-4.66-2.96l-16.45,5.29L254.06,375.6z"/>
</g>
<g>
	<path class="st35" d="M83.54,291.3c0,0,39.25-6.99,46.54-13.84c7.29-6.85,10.04-10.75,17.1-10.75c7.06,0,11.47,2.24,11.47,2.24
		s1.33-1.33-1.16-3.66c-7.5-7-47.25,0.81-57.8,7.41C86.28,281.1,83.54,291.3,83.54,291.3z"/>
</g>
<g>
	<path class="st41" d="M113.11,418.04c0,0,32.57-0.8,33.53-2.88c0.96-2.08,1.37-10.58,1.37-10.58s1.58,11.72,2.83,11.72
		s2.47,0.18,2.47,0.18l-0.1-13.86l5.59,27.55l-3.93,1.92l-0.66-1.35c0,0-12.34,5.84-22.64,6c-10.31,0.17-20.78-3.82-23.27-9.31
		C105.8,421.95,113.11,418.04,113.11,418.04z"/>
</g>
<g>
	<path class="st42" d="M82.28,253.57c0,0,0.33,12.3,2.33,18.28c2,5.98,1.64,7.85,2.99,8.98c1.36,1.12-3.7,11.5-3.7,11.5l-23.92,0.08
		c0,0-5.41-13.8-3.94-19.34c1.47-5.54,17.94-20.04,17.94-20.04L82.28,253.57z"/>
</g>
<g>
	<path class="st26" d="M794.43,309.25l12.48-2.94l-6.44-33.03c0,0-8.95-14.08-17.95-12.82c-15.27,2.14,4,49.02,5.75,49.69
		C791.41,311.36,794.43,309.25,794.43,309.25z"/>
</g>
<g>
	<path class="st34" d="M754.22,265.33c0,0,3.55,0.13,4.5,2.55c0.94,2.43,4.39,11.19,4.99,12.84c0.6,1.64,4.69,0.76,4.69,0.76
		s-4.54-11.79-5.83-15.25C761.26,262.76,754.22,265.33,754.22,265.33z"/>
</g>
<g>
	<path class="st34" d="M791.95,306.61c0,0,5.37-6.41,2.47-11.76c-2.91-5.35-8.69-11.72-10.69-20.18c-2-8.46,0.99-12.15,0.99-12.15
		s1.03,12.16,3.73,17.16c2.71,4.99,6.81,9.67,6.81,9.67l-4.41-10.4c0,0,5.63,4.47,7.59,10.65c1.96,6.18,2.42,13.51,2.26,6.05
		l-0.16-7.63c0,0,2.75,4.09,2.87,9.95c0.12,5.86-5.64,15.4-5.64,15.4L791.95,306.61z"/>
</g>
<g>
	<path class="st37" d="M521.99,434.71c4.09-0.79,10.34-1.59,15.07-0.36c7.65,1.99,14.62,11.22,14.79,18.91
		c2.28-9.36,4.72-19.65,6.77-28.37c-14.45-1.99-28.23-5.84-35.32-13.29C522.97,418.67,522.53,426.88,521.99,434.71z"/>
</g>
<g>
	<path class="st7" d="M658.65,351.53c0,0,13.46-12.1,14.46-17.26c1-5.15-11.87-35.76-11.87-35.76l6.6,2.76l13.31,35.25
		L658.65,351.53z"/>
</g>
<g>
	<path class="st41" d="M619.75,319.61l-1.97,26.58l0.64-31.12c0,0,13.67-0.31,22.44,1c8.76,1.31,15.8,6.68,17.43,11.64
		c1.63,4.96-5.51,10.36-5.96,8.97c-0.45-1.39-24.6-2.33-24.6-2.33L619.75,319.61z"/>
</g>
<g>
	<path class="st27" d="M154.4,403.18c0,0,8.92,10.12,13.57,10.62c4.65,0.5,22.61-4.65,22.61-4.65l1.96-4.64c0,0,9.94,1.41,12.3-0.22
		c2.36-1.63,47.63-30.89,47.63-30.89s12.41-1.17,16.4-2.99c3.98-1.82,8.97-2.98,8.97-2.98s-9.33,6.6-13.92,8.45
		c-4.59,1.85-9.68,2.85-9.68,2.85s-57.09,37.81-60.42,39.31c-3.32,1.5-36.35,5.54-36.35,5.54L154.4,403.18z"/>
</g>
<g>
	<path class="st28" d="M277.59,352.39l5.32-2.66l20.4-1.45l-20.15,2.53C283.16,350.81,276.01,354.05,277.59,352.39z"/>
</g>
<g>
	<path class="st27" d="M453.28,367.05c0,0,8.84-5.03,16.67-7.83c7.82-2.8,106.59-42.91,106.59-42.91l36.72,5.25l-1.22,19.83
		c0,0-26.2-17.49-32.1-17.05c-5.9,0.44-72.72,26.7-72.72,26.7s-19.61,11.64-21.61,11.97C483.62,363.35,454.36,369.67,453.28,367.05z
		"/>
</g>
<g>
	<polygon class="st43" points="457.19,610.18 457.19,745.78 461.18,745.78 	"/>
</g>
<g>
	<path class="st43" d="M379.07,608.19c1.28,0,2.33-3.58,2.33-7.98c0-4.39-1.05-7.98-2.33-7.98c-1.28,0-2.33,3.58-2.33,7.98
		C376.74,604.6,377.78,608.19,379.07,608.19z"/>
</g>
<g>
	<path class="st43" d="M399.68,654.73c0.92,0,1.66-1.34,1.66-2.99c0-1.65-0.75-2.99-1.66-2.99s-1.66,1.34-1.66,2.99
		C398.01,653.38,398.76,654.73,399.68,654.73z"/>
</g>
<g>
	<path class="st43" d="M256.73,658.05c0.92,0,1.66-3.14,1.66-6.98c0-3.84-0.75-6.98-1.66-6.98c-0.92,0-1.66,3.14-1.66,6.98
		C255.07,654.92,255.82,658.05,256.73,658.05z"/>
</g>
<g>
	<path class="st43" d="M296.96,717.89c0.73,0,1.33-1.64,1.33-3.66c0-2.01-0.6-3.66-1.33-3.66c-0.73,0-1.33,1.64-1.33,3.66
		C295.63,716.25,296.22,717.89,296.96,717.89z"/>
</g>
<g>
	<path class="st43" d="M633.38,572.95c2.2,0,3.99-2.69,3.99-5.98c0-3.3-1.79-5.98-3.99-5.98c-2.2,0-3.99,2.69-3.99,5.98
		C629.39,570.26,631.18,572.95,633.38,572.95z"/>
</g>
<g>
	<path class="st43" d="M751.72,523.75c0.73,0,1.33-1.19,1.33-2.66c0-1.46-0.6-2.66-1.33-2.66c-0.73,0-1.33,1.2-1.33,2.66
		C750.39,522.56,750.99,523.75,751.72,523.75z"/>
</g>
<g>
	<path class="st43" d="M716.48,672.68c1.83,0,3.32-8.96,3.32-19.95c0-10.99-1.49-19.95-3.32-19.95c-1.83,0-3.32,8.96-3.32,19.95
		C713.16,663.72,714.65,672.68,716.48,672.68z"/>
</g>
<g>
	<path class="st43" d="M806.91,551.67c1.1,0,1.99-2.39,1.99-5.32c0-2.93-0.9-5.32-1.99-5.32c-1.1,0-1.99,2.39-1.99,5.32
		C804.91,549.28,805.81,551.67,806.91,551.67z"/>
</g>
<g>
	<path class="st43" d="M567.56,663.37c1.1,0,1.99-1.79,1.99-3.99c0-2.2-0.9-3.99-1.99-3.99c-1.1,0-1.99,1.79-1.99,3.99
		C565.56,661.58,566.46,663.37,567.56,663.37z"/>
</g>
<g>
	<path class="st43" d="M156.67,711.24c1.1,0,1.99-1.05,1.99-2.33c0-1.28-0.9-2.33-1.99-2.33c-1.1,0-1.99,1.05-1.99,2.33
		C154.68,710.2,155.57,711.24,156.67,711.24z"/>
</g>
<g>
	<path class="st43" d="M45.97,709.25c0.73,0,1.33-0.82,1.33-1.83c0-1.01-0.6-1.83-1.33-1.83c-0.73,0-1.33,0.82-1.33,1.83
		C44.64,708.43,45.24,709.25,45.97,709.25z"/>
</g>
<g>
	<path class="st43" d="M86.36,733.51c0.46,0,0.83-0.82,0.83-1.83c0-1.01-0.37-1.83-0.83-1.83c-0.46,0-0.83,0.82-0.83,1.83
		C85.53,732.69,85.9,733.51,86.36,733.51z"/>
</g>
<g>
	<polygon class="st43" points="536.64,655.71 536.64,524.44 540.63,524.44 	"/>
</g>
<g>
	<polygon class="st43" points="562.24,591.23 562.24,524.75 558.52,524.75 	"/>
</g>
<g>
	<polygon class="st43" points="609.64,585.91 609.64,745.78 605.92,745.78 	"/>
</g>
<g>
	<polygon class="st43" points="222.34,641.13 222.34,745.78 225.62,745.78 	"/>
</g>
<g>
	<polygon class="st43" points="63.59,737.61 63.59,685.28 66.87,685.28 	"/>
</g>
<g>
	<polygon class="st43" points="71.58,719.96 71.58,685.38 73.75,685.38 	"/>
</g>
<g>
	<polygon class="st43" points="234.21,668.09 234.21,745.94 231.77,745.94 	"/>
</g>
</svg>
